<svg version="1.1" id="Layer_1" xmlns="http://www.w3.org/2000/svg" xmlns:xlink="http://www.w3.org/1999/xlink" x="0px" y="0px"
	 width="100%" viewBox="0 0 442 427" enable-background="new 0 0 442 427" xml:space="preserve">
<path fill="#000000" opacity="1.000000" stroke="none" 
	d="
M311.000000,428.000000 
	C207.362991,428.000000 104.225983,428.000000 1.044487,428.000000 
	C1.044487,285.737244 1.044487,143.474487 1.044487,1.105862 
	C148.220337,1.105862 295.440796,1.105862 442.830627,1.105862 
	C442.830627,143.333160 442.830627,285.666565 442.830627,428.000000 
	C399.141113,428.000000 355.320557,428.000000 311.000000,428.000000 
M149.184433,166.360809 
	C149.123810,171.793976 148.946365,177.229324 149.047333,182.659485 
	C149.105911,185.809906 149.612076,188.952011 149.994125,193.020035 
	C149.718063,202.667450 149.442001,212.314850 149.003418,222.894455 
	C149.059052,241.596481 149.114685,260.298523 149.012466,279.908813 
	C149.327423,288.312561 147.764465,296.154968 143.815262,303.783844 
	C133.084717,324.512726 103.215324,327.764191 87.821129,308.512756 
	C80.189308,298.968658 77.049454,287.964050 77.096657,276.001587 
	C77.112434,272.001709 75.913040,270.656250 71.949539,270.942169 
	C64.542755,271.476410 57.112103,271.689423 49.689659,271.994110 
	C40.941200,272.353149 32.189358,272.633942 23.443178,273.039246 
	C22.189165,273.097321 20.682653,273.331055 19.785854,274.076477 
	C18.615313,275.049408 17.063597,276.707031 17.192038,277.907867 
	C17.862059,284.172241 18.997271,290.387726 19.999290,296.615601 
	C23.544519,318.650177 32.277214,337.667480 48.710114,353.630768 
	C64.183006,368.661438 82.604218,376.647369 103.077942,378.637482 
	C127.239799,380.986053 151.079071,377.764282 171.023010,361.866760 
	C178.195068,356.149841 184.667801,349.387939 190.645187,342.405609 
	C193.980240,338.509888 195.556778,333.135376 198.074387,328.508087 
	C205.161514,315.482300 208.355087,301.347900 208.870331,286.751740 
	C209.438538,270.654816 209.000000,254.522369 209.000000,237.539627 
	C219.104126,238.035599 228.791733,238.711899 238.489059,238.908264 
	C243.897308,239.017761 249.318817,238.119293 254.739456,238.044495 
	C265.565125,237.895126 276.396332,237.872696 287.221497,238.040283 
	C295.976746,238.175812 304.724396,238.747253 313.479401,238.971649 
	C319.306915,239.121002 325.153320,239.226776 330.968658,238.921616 
	C334.955688,238.712402 336.187012,240.036346 336.074646,244.023895 
	C335.570007,261.932251 335.036255,279.848724 335.071625,297.761169 
	C335.121124,322.829224 335.705933,347.895874 335.948669,372.964203 
	C335.977875,375.982422 336.957367,377.169250 340.015137,377.044617 
	C344.339813,376.868347 348.678894,376.918060 353.008606,377.015381 
	C365.927429,377.305847 378.843933,377.754852 391.763763,377.872955 
	C393.161957,377.885712 395.789673,376.143677 395.791382,375.211884 
	C395.805176,367.662231 395.069916,360.112549 395.045563,352.561310 
	C394.950531,323.072632 395.033020,293.583405 395.799316,263.634949 
	C395.860046,228.082352 395.926056,192.529739 395.942383,156.977127 
	C395.942688,156.289230 395.358063,155.601059 395.003265,153.987503 
	C395.002167,144.658615 395.000336,135.329727 395.000122,126.000847 
	C394.999695,103.677933 395.009888,81.355003 394.984680,59.032116 
	C394.982178,56.821030 395.738586,54.006683 391.979340,54.005108 
	C374.320923,53.997700 356.662445,53.980186 339.004150,54.022751 
	C336.053497,54.029861 334.576141,55.501808 334.977356,58.651581 
	C335.410706,62.053497 335.989288,65.482193 335.945068,68.891953 
	C335.734375,85.138481 335.050903,101.382935 335.072693,117.627396 
	C335.098969,137.204529 335.642426,156.781403 336.026855,176.357117 
	C336.082733,179.202774 335.801147,181.043732 332.112762,181.080215 
	C322.195892,181.178299 312.281036,181.993179 302.368622,181.938904 
	C272.290833,181.774261 242.214539,181.333237 212.137665,181.000336 
	C211.804520,180.996658 211.328613,181.142426 211.161270,180.975662 
	C210.070480,179.888626 208.210251,178.781647 208.143204,177.594177 
	C207.824585,171.950409 207.870651,166.274994 208.034714,160.618011 
	C208.216080,154.364044 208.936539,148.117493 208.926926,141.868454 
	C208.916534,135.118591 208.143997,128.372437 208.043259,121.619598 
	C207.881836,110.798439 207.870377,99.971100 208.038132,89.150124 
	C208.191895,79.232841 208.677185,69.320862 208.993973,59.405830 
	C209.097977,56.150261 208.571732,53.864273 204.239517,53.916389 
	C187.249908,54.120789 170.256348,53.984451 153.264328,54.012829 
	C149.764343,54.018673 148.668106,54.882309 148.756760,57.262386 
	C149.168671,68.322731 149.870773,79.381065 149.942108,90.443512 
	C150.104309,115.596619 149.957428,140.751724 149.184433,166.360809 
z"/>
<path fill="#FFFFFF" opacity="1.000000" stroke="none" 
	d="
M395.049500,264.094360 
	C395.033020,293.583405 394.950531,323.072632 395.045563,352.561310 
	C395.069916,360.112549 395.805176,367.662231 395.791382,375.211884 
	C395.789673,376.143677 393.161957,377.885712 391.763763,377.872955 
	C378.843933,377.754852 365.927429,377.305847 353.008606,377.015381 
	C348.678894,376.918060 344.339813,376.868347 340.015137,377.044617 
	C336.957367,377.169250 335.977875,375.982422 335.948669,372.964203 
	C335.705933,347.895874 335.121124,322.829224 335.071625,297.761169 
	C335.036255,279.848724 335.570007,261.932251 336.074646,244.023895 
	C336.187012,240.036346 334.955688,238.712402 330.968658,238.921616 
	C325.153320,239.226776 319.306915,239.121002 313.479401,238.971649 
	C304.724396,238.747253 295.976746,238.175812 287.221497,238.040283 
	C276.396332,237.872696 265.565125,237.895126 254.739456,238.044495 
	C249.318817,238.119293 243.897308,239.017761 238.489059,238.908264 
	C228.791733,238.711899 219.104126,238.035599 209.000000,237.539627 
	C209.000000,254.522369 209.438538,270.654816 208.870331,286.751740 
	C208.355087,301.347900 205.161514,315.482300 198.074387,328.508087 
	C195.556778,333.135376 193.980240,338.509888 190.645187,342.405609 
	C184.667801,349.387939 178.195068,356.149841 171.023010,361.866760 
	C151.079071,377.764282 127.239799,380.986053 103.077942,378.637482 
	C82.604218,376.647369 64.183006,368.661438 48.710114,353.630768 
	C32.277214,337.667480 23.544519,318.650177 19.999290,296.615601 
	C18.997271,290.387726 17.862059,284.172241 17.192038,277.907867 
	C17.063597,276.707031 18.615313,275.049408 19.785854,274.076477 
	C20.682653,273.331055 22.189165,273.097321 23.443178,273.039246 
	C32.189358,272.633942 40.941200,272.353149 49.689659,271.994110 
	C57.112103,271.689423 64.542755,271.476410 71.949539,270.942169 
	C75.913040,270.656250 77.112434,272.001709 77.096657,276.001587 
	C77.049454,287.964050 80.189308,298.968658 87.821129,308.512756 
	C103.215324,327.764191 133.084717,324.512726 143.815262,303.783844 
	C147.764465,296.154968 149.327423,288.312561 149.360489,279.138367 
	C149.790710,260.156250 149.880402,241.944611 149.921600,223.732849 
	C149.922943,223.143219 149.429001,222.552490 149.165955,221.962265 
	C149.442001,212.314850 149.718063,202.667450 149.975311,192.085831 
	C149.949722,182.736420 149.942932,174.321213 149.936157,165.906006 
	C149.957428,140.751724 150.104309,115.596619 149.942108,90.443512 
	C149.870773,79.381065 149.168671,68.322731 148.756760,57.262386 
	C148.668106,54.882309 149.764343,54.018673 153.264328,54.012829 
	C170.256348,53.984451 187.249908,54.120789 204.239517,53.916389 
	C208.571732,53.864273 209.097977,56.150261 208.993973,59.405830 
	C208.677185,69.320862 208.191895,79.232841 208.038132,89.150124 
	C207.870377,99.971100 207.881836,110.798439 208.043259,121.619598 
	C208.143997,128.372437 208.916534,135.118591 208.926926,141.868454 
	C208.936539,148.117493 208.216080,154.364044 208.034714,160.618011 
	C207.870651,166.274994 207.824585,171.950409 208.143204,177.594177 
	C208.210251,178.781647 210.070480,179.888626 211.161270,180.975662 
	C211.328613,181.142426 211.804520,180.996658 212.137665,181.000336 
	C242.214539,181.333237 272.290833,181.774261 302.368622,181.938904 
	C312.281036,181.993179 322.195892,181.178299 332.112762,181.080215 
	C335.801147,181.043732 336.082733,179.202774 336.026855,176.357117 
	C335.642426,156.781403 335.098969,137.204529 335.072693,117.627396 
	C335.050903,101.382935 335.734375,85.138481 335.945068,68.891953 
	C335.989288,65.482193 335.410706,62.053497 334.977356,58.651581 
	C334.576141,55.501808 336.053497,54.029861 339.004150,54.022751 
	C356.662445,53.980186 374.320923,53.997700 391.979340,54.005108 
	C395.738586,54.006683 394.982178,56.821030 394.984680,59.032116 
	C395.009888,81.355003 394.999695,103.677933 395.000122,126.000847 
	C395.000336,135.329727 395.002167,144.658615 394.999756,154.923523 
	C395.013977,191.937805 395.031738,228.016083 395.049500,264.094360 
z"/>
<path fill="#CEFAFF" opacity="1.000000" stroke="none" 
	d="
M395.424377,263.864655 
	C395.031738,228.016083 395.013977,191.937805 395.021301,155.386276 
	C395.358063,155.601059 395.942688,156.289230 395.942383,156.977127 
	C395.926056,192.529739 395.860046,228.082352 395.424377,263.864655 
z"/>
<path fill="#C3F0FF" opacity="1.000000" stroke="none" 
	d="
M149.084686,222.428360 
	C149.429001,222.552490 149.922943,223.143219 149.921600,223.732849 
	C149.880402,241.944611 149.790710,260.156250 149.439423,278.684235 
	C149.114685,260.298523 149.059052,241.596481 149.084686,222.428360 
z"/>
<path fill="#C7F4FF" opacity="1.000000" stroke="none" 
	d="
M149.560303,166.133408 
	C149.942932,174.321213 149.949722,182.736420 149.936676,191.624741 
	C149.612076,188.952011 149.105911,185.809906 149.047333,182.659485 
	C148.946365,177.229324 149.123810,171.793976 149.560303,166.133408 
z"/>
</svg>